<svg width="16" height="20" version="1.1" viewBox="0 0 16 20" xmlns="http://www.w3.org/2000/svg">
 <path d="m2 0h12a2 2 0 0 1 2 2v16a2 2 0 0 1-2 2h-12a2 2 0 0 1-2-2v-16a2 2 0 0 1 2-2m1 2a1 1 0 0 0-1 1 1 1 0 0 0 1 1 1 1 0 0 0 1-1 1 1 0 0 0-1-1m3 0a1 1 0 0 0-1 1 1 1 0 0 0 1 1 1 1 0 0 0 1-1 1 1 0 0 0-1-1m2 4a6 6 0 0 0-6 6 6 6 0 0 0 6 6 6 6 0 0 0 6-6 6 6 0 0 0-6-6m-3.89 2.5h1.89c-0.24 1.38 0 2.17 0.58 2.79 1.1 1.07 1.58 2.42 1.31 4.21h-1.89c0.24-1.38 0-2.17-0.58-2.79-1.1-1.07-1.57-2.42-1.31-4.21m4 0h1.89c-0.24 1.38 0 2.17 0.58 2.79 1.1 1.07 1.58 2.42 1.31 4.21h-1.89c0.24-1.38 0-2.17-0.58-2.79-1.1-1.07-1.57-2.42-1.31-4.21z" fill="#bb000f"/>
</svg>
